<?xml version="1.0" standalone="no"?>
<!DOCTYPE svg PUBLIC "-//W3C//DTD SVG 20010904//EN"
 "http://www.w3.org/TR/2001/REC-SVG-20010904/DTD/svg10.dtd">
<svg version="1.0" xmlns="http://www.w3.org/2000/svg"
 width="1508.000000pt" height="1508.000000pt" viewBox="0 0 1508.000000 1508.000000"
 preserveAspectRatio="xMidYMid meet">
<metadata>
Created by potrace 1.11, written by Peter Selinger 2001-2013
</metadata>
<g transform="translate(0.000000,1508.000000) scale(0.100000,-0.100000)"
fill="#000000" stroke="none">
<path d="M50 7540 l0 -7490 7490 0 7490 0 0 7490 0 7490 -7490 0 -7490 0 0
-7490z m6120 -2155 l-1100 -1100 -1105 1105 -1105 1105 0 2243 c0 1347 4 2242
9 2240 5 -1 298 -290 650 -641 l641 -637 0 -1212 0 -1213 237 -238 c131 -131
336 -333 456 -449 l218 -212 450 450 449 449 0 1210 0 1210 648 648 647 647 3
-2253 2 -2252 -1100 -1100z m2832 4477 l1118 -1117 1080 1080 1080 1080 0
-870 c0 -479 -3 -1009 -6 -1180 l-6 -310 -509 -510 -509 -510 510 -510 510
-510 0 -1174 0 -1174 -1097 1096 -1098 1097 -1102 -1103 -1103 -1102 0 1175 0
1175 515 515 515 515 -515 515 -515 515 0 1219 c0 671 3 1216 8 1212 4 -4 510
-509 1124 -1124z"/>
<path d="M3000 10665 c0 -6 0 -938 0 -2073 l0 -2063 1031 -1027 c567 -565
1034 -1028 1038 -1030 3 -1 471 463 1039 1031 l1032 1032 -2 2069 -3 2068
-517 -512 -518 -512 0 -1211 0 -1212 -517 -518 -517 -518 -518 518 -518 518 0
1210 0 1210 -515 515 c-283 283 -515 510 -515 505z"/>
<path d="M8000 9640 l0 -1035 540 -540 540 -540 -540 -540 -540 -540 0 -990 0
-990 1035 1035 1035 1035 1040 -1040 1040 -1040 0 995 0 995 -540 540 -540
540 540 540 540 540 0 975 c0 536 0 982 0 990 0 8 -457 -442 -1015 -1000
l-1015 -1015 -1060 1060 -1060 1060 0 -1035z"/>
</g>
</svg>
